<svg width="121" height="60" viewBox="0 0 121 60" fill="none" xmlns="http://www.w3.org/2000/svg">
<path d="M65.3064 33.4475L61.0508 37.6833H65.5349V50.2656H54.8542V43.8649L50.1284 48.6115V60H54.8542V54.4976H65.5349V60H70.2569V33.4475H65.3064Z" fill="white"/>
<path d="M1.15632 26.5953V6.53481e-06H19.0407V4.23984H5.85867V11.833H17.8844V16.0728H5.85867V26.5953H1.15632Z" fill="white"/>
<path d="M75.1214 20.3512V6.24412C75.1214 2.08138 77.2028 6.53481e-06 81.3655 6.53481e-06H94.9715V1.77303V4.23984H81.5197C80.3891 4.23984 79.8238 4.80515 79.8238 5.93577V20.6595C79.8238 21.7902 80.3891 22.3555 81.5197 22.3555H91.0401V14.9165H85.4127V10.6767H95.7424V26.5953H81.3655C77.2028 26.5953 75.1214 24.5139 75.1214 20.3512Z" fill="white"/>
<path d="M98.0942 6.53481e-06H99.1653H103.135L109.457 12.1028L115.778 6.53481e-06H119.786H120.792L111.808 17.0364V26.5953H107.105V17.0364L98.0942 6.53481e-06Z" fill="white"/>
<path d="M0 58.227V55.7602H11.9101C13.0407 55.7602 13.606 55.1949 13.606 54.0642V51.1349C13.606 50.1328 13.1692 49.5418 12.2955 49.3619L4.47109 47.8201C1.49036 47.2034 0 45.1863 0 41.7687V39.6488C0 35.4861 2.08137 33.4047 6.24411 33.4047H17.5375V35.1777V37.6445H6.39829C5.26766 37.6445 4.70235 38.2099 4.70235 39.3405V41.8844C4.70235 42.8865 5.13919 43.4775 6.01285 43.6574L13.8373 45.1992C16.818 45.8158 18.3083 47.8201 18.3083 51.212V53.7559C18.3083 57.9186 16.227 60 12.0642 60H0L0 58.227Z" fill="white"/>
<path d="M20.9664 37.6445V33.4047H28.6432L34.0327 38.791V60H29.3304V37.6445H20.9664Z" fill="white"/>
<path d="M75.0404 60V33.4047H88.8576C93.0203 33.4047 95.1017 35.4861 95.1017 39.6488V44.0043C95.1017 47.2677 93.8169 49.2463 91.2473 49.94L95.8726 58.9979L96.4057 60H91.2859L86.3522 50.2484H79.7428V60H75.0404ZM79.7428 46.0086H88.7034C89.834 46.0086 90.3993 45.4433 90.3993 44.3126V39.3405C90.3993 38.2099 89.834 37.6445 88.7034 37.6445H79.7428V46.0086Z" fill="white"/>
<path d="M56.343 33.1421C54.6607 33.1421 53.0473 33.8104 51.8577 35C50.6682 36.1896 49.9999 37.803 49.9999 39.4853V44.1306L60.9973 33.1421H56.343Z" fill="#FE333C"/>
<path d="M37.657 33.1423C39.3393 33.1423 40.9527 33.8106 42.1423 35.0002C43.3319 36.1898 44.0002 37.8031 44.0002 39.4854V44.1308L32.9938 33.1423H37.657Z" fill="#FE333C"/>
<path d="M37.6633 26.975C39.3456 26.975 40.959 26.3067 42.1485 25.1172C43.3381 23.9276 44.0064 22.3142 44.0064 20.6319V16L33 26.975H37.6633Z" fill="#FE333C"/>
<path d="M56.3429 26.8579C54.6606 26.8579 53.0472 26.1896 51.8576 25C50.6681 23.8104 49.9998 22.197 49.9998 20.5147V15.8828L60.9972 26.8579H56.3429Z" fill="#FE333C"/>
<path d="M22.7062 6.24411V20.3512C22.7062 24.5139 24.8986 26.5953 28.8067 26.5953L33.0622 22.3555H29.1045C27.9738 22.3555 27.4085 21.7901 27.4085 20.6595V5.93576C27.4085 4.80514 27.9738 4.23983 29.1045 4.23983H37.6997C38.8304 4.23983 39.3957 4.80514 39.3957 5.93576V16.0402L44.098 11.2936V6.24411C44.098 2.08137 42.0167 0 37.8539 0H28.9503C24.7875 0 22.7062 2.08137 22.7062 6.24411Z" fill="white"/>
<path d="M56.244 6.53481e-06C52.0812 6.53481e-06 49.9999 2.08138 49.9999 6.24412V11.2936L54.7104 15.9685L54.7022 5.93577C54.7022 4.80515 55.2675 4.23983 56.3982 4.23983H69.85V1.77303V0L56.244 6.53481e-06Z" fill="white"/>
<path d="M65.9185 14.9165V22.3555H61.0507L65.4699 26.5953H70.6209V10.6767H60.2911V14.9165H65.9185Z" fill="white"/>
</svg>
